<svg width="103" height="33" viewBox="0 0 103 33" fill="none" xmlns="http://www.w3.org/2000/svg">
<path d="M96.3445 26.4563H101.74V27.3933H95.1052V26.547L100.425 17.7661H95.1959V16.8291H101.664V17.6754L96.3445 26.4563Z" fill="white"/>
<path d="M84.6241 16.8291C85.7929 16.8291 86.7954 17.0407 87.6317 17.4639C88.4679 17.887 89.1077 18.4966 89.5511 19.2926C89.9944 20.0885 90.216 21.0356 90.216 22.1339C90.216 23.222 89.9944 24.1641 89.5511 24.9601C89.1077 25.746 88.4679 26.3505 87.6317 26.7737C86.7954 27.1868 85.7929 27.3933 84.6241 27.3933H81.4957V16.8291H84.6241ZM84.6241 26.5167C86.0951 26.5167 87.2135 26.1339 87.9793 25.3681C88.7551 24.5923 89.143 23.5142 89.143 22.1339C89.143 20.7434 88.7551 19.6603 87.9793 18.8845C87.2135 18.0986 86.0951 17.7057 84.6241 17.7057H82.5536V26.5167H84.6241Z" fill="white"/>
<path d="M72.0045 27.3933L69.3899 22.9802H67.4403V27.3933H66.3824V16.8291H69.5561C70.735 16.8291 71.6267 17.1112 72.2312 17.6754C72.8458 18.2397 73.1531 18.9802 73.1531 19.8971C73.1531 20.6628 72.9315 21.3178 72.4881 21.8618C72.0549 22.3958 71.41 22.7434 70.5536 22.9047L73.274 27.3933H72.0045ZM67.4403 22.1188H69.5713C70.3975 22.1188 71.0171 21.9172 71.4302 21.5142C71.8534 21.1112 72.065 20.5722 72.065 19.8971C72.065 19.2019 71.8634 18.6679 71.4604 18.2951C71.0574 17.9122 70.4226 17.7208 69.5561 17.7208H67.4403V22.1188Z" fill="white"/>
<path d="M57.3899 24.8845H52.5839L51.662 27.3933H50.5436L54.3975 16.9651H55.5915L59.4302 27.3933H58.3118L57.3899 24.8845ZM57.0726 24.0079L54.9869 18.2951L52.9013 24.0079H57.0726Z" fill="white"/>
<path d="M45.4995 16.8291L42.1142 23.2825V27.3933H41.0562V23.2825L37.6406 16.8291H38.8346L41.5852 22.3152L44.3207 16.8291H45.4995Z" fill="white"/>
<path d="M48.9091 3.22516V14.1698H46.7139V7.05109L43.7817 14.1698H42.1196L39.1718 7.05109V14.1698H36.9766V3.22516H39.4697L42.9507 11.3631L46.4316 3.22516H48.9091Z" fill="white"/>
<path d="M56.1598 14.2796C55.1353 14.2796 54.1945 14.0392 53.3374 13.5583C52.4802 13.0775 51.8007 12.4137 51.2989 11.5669C50.7972 10.7098 50.5463 9.74284 50.5463 8.66614C50.5463 7.5999 50.7972 6.64341 51.2989 5.79669C51.8007 4.93951 52.4802 4.2705 53.3374 3.78964C54.1945 3.30879 55.1353 3.06836 56.1598 3.06836C57.1946 3.06836 58.1355 3.30879 58.9822 3.78964C59.8394 4.2705 60.5136 4.93951 61.0049 5.79669C61.5067 6.64341 61.7575 7.5999 61.7575 8.66614C61.7575 9.74284 61.5067 10.7098 61.0049 11.5669C60.5136 12.4137 59.8394 13.0775 58.9822 13.5583C58.125 14.0392 57.1842 14.2796 56.1598 14.2796ZM56.1598 12.3196C56.8183 12.3196 57.3985 12.1732 57.9002 11.8806C58.402 11.5774 58.794 11.1488 59.0763 10.5948C59.3585 10.0408 59.4996 9.39787 59.4996 8.66614C59.4996 7.9344 59.3585 7.29675 59.0763 6.75317C58.794 6.19914 58.402 5.77578 57.9002 5.48309C57.3985 5.19039 56.8183 5.04405 56.1598 5.04405C55.5012 5.04405 54.9158 5.19039 54.4036 5.48309C53.9018 5.77578 53.5098 6.19914 53.2276 6.75317C52.9454 7.29675 52.8042 7.9344 52.8042 8.66614C52.8042 9.39787 52.9454 10.0408 53.2276 10.5948C53.5098 11.1488 53.9018 11.5774 54.4036 11.8806C54.9158 12.1732 55.5012 12.3196 56.1598 12.3196Z" fill="white"/>
<path d="M67.2167 3.22516C68.3665 3.22516 69.3753 3.44991 70.2429 3.8994C71.121 4.3489 71.7952 4.99178 72.2656 5.82805C72.7465 6.65387 72.9869 7.61558 72.9869 8.71318C72.9869 9.81078 72.7465 10.7725 72.2656 11.5983C71.7952 12.4137 71.121 13.0461 70.2429 13.4956C69.3753 13.9451 68.3665 14.1698 67.2167 14.1698H63.3907V3.22516H67.2167ZM67.1383 12.3039C68.2881 12.3039 69.1767 11.9903 69.8039 11.3631C70.4311 10.7359 70.7447 9.8526 70.7447 8.71318C70.7447 7.57376 70.4311 6.68523 69.8039 6.04757C69.1767 5.39946 68.2881 5.07541 67.1383 5.07541H65.5859V12.3039H67.1383Z" fill="white"/>
<path d="M76.8253 4.99701V7.74102H80.5102V9.4815H76.8253V12.3823H80.9806V14.1698H74.6301V3.20948H80.9806V4.99701H76.8253Z" fill="white"/>
<path d="M88.6203 14.1698L86.2056 9.90486H85.1707V14.1698H82.9755V3.22516H87.0837C87.9304 3.22516 88.6517 3.37673 89.2475 3.67988C89.8433 3.97258 90.2876 4.37503 90.5803 4.88725C90.8835 5.38901 91.035 5.95349 91.035 6.58069C91.035 7.30197 90.826 7.95531 90.4078 8.5407C89.9897 9.11563 89.3677 9.51286 88.5419 9.73238L91.1605 14.1698H88.6203ZM85.1707 8.25846H87.0053C87.6011 8.25846 88.0454 8.11734 88.3381 7.8351C88.6308 7.5424 88.7771 7.13995 88.7771 6.62773C88.7771 6.12597 88.6308 5.73919 88.3381 5.46741C88.0454 5.18517 87.6011 5.04405 87.0053 5.04405H85.1707V8.25846Z" fill="white"/>
<path d="M102.382 14.1698H100.186L95.2157 6.65909V14.1698H93.0205V3.20948H95.2157L100.186 10.7359V3.20948H102.382V14.1698Z" fill="white"/>
<path d="M0 4.72291C0 2.11452 2.11452 0 4.72291 0H28.3375C30.9458 0 33.0604 2.11452 33.0604 4.72291V27.3929C33.0604 30.0013 30.9458 32.1158 28.3375 32.1158H4.72291C2.11452 32.1158 0 30.0013 0 27.3929V4.72291Z" fill="white"/>
<path d="M27.3894 14.1697V7.55762L16.0545 16.0589L5.66406 7.55762V14.1697M27.3894 14.1697V25.977M27.3894 14.1697L19.3605 21.2541V25.977M5.66406 25.977V14.1697M5.66406 14.1697L13.2207 21.2541V25.977" stroke="black" stroke-width="2"/>
</svg>
