<svg width="114" height="36" viewBox="0 0 114 36" fill="none" xmlns="http://www.w3.org/2000/svg">
<path d="M106.923 29.3595H112.91V30.3994H105.547V29.4601L111.451 19.7156H105.648V18.6758H112.826V19.615L106.923 29.3595Z" fill="black"/>
<path d="M93.9161 18.6758C95.2131 18.6758 96.3257 18.9106 97.2537 19.3802C98.1818 19.8498 98.8918 20.5263 99.3838 21.4096C99.8757 22.2929 100.122 23.344 100.122 24.5627C100.122 25.7703 99.8757 26.8158 99.3838 27.6991C98.8918 28.5712 98.1818 29.2421 97.2537 29.7117C96.3257 30.1701 95.2131 30.3994 93.9161 30.3994H90.4443V18.6758H93.9161ZM93.9161 29.4266C95.5486 29.4266 96.7897 29.0017 97.6395 28.1519C98.5004 27.291 98.9309 26.0946 98.9309 24.5627C98.9309 23.0197 98.5004 21.8177 97.6395 20.9568C96.7897 20.0846 95.5486 19.6486 93.9161 19.6486H91.6183V29.4266H93.9161Z" fill="black"/>
<path d="M79.9115 30.3994L77.01 25.502H74.8464V30.3994H73.6724V18.6758H77.1945C78.5027 18.6758 79.4922 18.9889 80.1631 19.615C80.8452 20.2412 81.1862 21.063 81.1862 22.0805C81.1862 22.9303 80.9402 23.657 80.4482 24.2608C79.9674 24.8534 79.2518 25.2392 78.3014 25.4181L81.3204 30.3994H79.9115ZM74.8464 24.546H77.2113C78.1281 24.546 78.8158 24.3223 79.2742 23.8751C79.7438 23.4278 79.9786 22.8296 79.9786 22.0805C79.9786 21.309 79.755 20.7164 79.3078 20.3027C78.8605 19.8778 78.1561 19.6653 77.1945 19.6653H74.8464V24.546Z" fill="black"/>
<path d="M63.6931 27.6152H58.3596L57.3365 30.3994H56.0954L60.3722 18.8267H61.6972L65.9573 30.3994H64.7162L63.6931 27.6152ZM63.3409 26.6424L61.0263 20.3027L58.7118 26.6424H63.3409Z" fill="black"/>
<path d="M50.4978 18.6758L46.7409 25.8374V30.3994H45.5668V25.8374L41.7764 18.6758H43.1013L46.1538 24.764L49.1896 18.6758H50.4978Z" fill="black"/>
<path d="M54.2772 3.57831V15.7241H51.8411V7.82412L48.5871 15.7241H46.7426L43.4713 7.82412V15.7241H41.0352V3.57831H43.8019L47.6649 12.6094L51.5279 3.57831H54.2772Z" fill="black"/>
<path d="M62.3236 15.8459C61.1868 15.8459 60.1427 15.5791 59.1915 15.0455C58.2402 14.5119 57.4862 13.7752 56.9294 12.8356C56.3725 11.8843 56.0941 10.8113 56.0941 9.61641C56.0941 8.43315 56.3725 7.3717 56.9294 6.43205C57.4862 5.4808 58.2402 4.73836 59.1915 4.20474C60.1427 3.67111 61.1868 3.4043 62.3236 3.4043C63.4721 3.4043 64.5161 3.67111 65.4558 4.20474C66.407 4.73836 67.1553 5.4808 67.7005 6.43205C68.2573 7.3717 68.5357 8.43315 68.5357 9.61641C68.5357 10.8113 68.2573 11.8843 67.7005 12.8356C67.1553 13.7752 66.407 14.5119 65.4558 15.0455C64.5045 15.5791 63.4605 15.8459 62.3236 15.8459ZM62.3236 13.6708C63.0545 13.6708 63.6983 13.5084 64.2551 13.1836C64.812 12.8472 65.247 12.3715 65.5602 11.7567C65.8734 11.1419 66.03 10.4285 66.03 9.61641C66.03 8.80437 65.8734 8.09673 65.5602 7.4935C65.247 6.87867 64.812 6.40885 64.2551 6.08403C63.6983 5.75922 63.0545 5.59681 62.3236 5.59681C61.5928 5.59681 60.9432 5.75922 60.3747 6.08403C59.8179 6.40885 59.3829 6.87867 59.0697 7.4935C58.7565 8.09673 58.5998 8.80437 58.5998 9.61641C58.5998 10.4285 58.7565 11.1419 59.0697 11.7567C59.3829 12.3715 59.8179 12.8472 60.3747 13.1836C60.9432 13.5084 61.5928 13.6708 62.3236 13.6708Z" fill="black"/>
<path d="M74.594 3.57831C75.87 3.57831 76.9895 3.82772 77.9523 4.32654C78.9268 4.82537 79.675 5.5388 80.1971 6.46685C80.7307 7.3833 80.9975 8.45055 80.9975 9.66861C80.9975 10.8867 80.7307 11.9539 80.1971 12.8704C79.675 13.7752 78.9268 14.4771 77.9523 14.9759C76.9895 15.4747 75.87 15.7241 74.594 15.7241H70.3482V3.57831H74.594ZM74.507 13.6534C75.783 13.6534 76.7691 13.3054 77.4651 12.6094C78.1612 11.9133 78.5092 10.9331 78.5092 9.66861C78.5092 8.40415 78.1612 7.4181 77.4651 6.71046C76.7691 5.99123 75.783 5.63161 74.507 5.63161H72.7843V13.6534H74.507Z" fill="black"/>
<path d="M85.2572 5.5446V8.58976H89.3464V10.5213H85.2572V13.7404H89.8684V15.7241H82.8211V3.5609H89.8684V5.5446H85.2572Z" fill="black"/>
<path d="M98.3466 15.7241L95.6668 10.9911H94.5184V15.7241H92.0823V3.57831H96.6413C97.5809 3.57831 98.3814 3.74651 99.0426 4.08293C99.7038 4.40775 100.197 4.85437 100.522 5.4228C100.858 5.97963 101.026 6.60606 101.026 7.30209C101.026 8.10253 100.794 8.82757 100.33 9.4772C99.8663 10.1152 99.176 10.5561 98.2596 10.7997L101.166 15.7241H98.3466ZM94.5184 9.16399H96.5543C97.2155 9.16399 97.7085 9.00738 98.0334 8.69416C98.3582 8.36935 98.5206 7.92272 98.5206 7.3543C98.5206 6.79747 98.3582 6.36825 98.0334 6.06663C97.7085 5.75341 97.2155 5.59681 96.5543 5.59681H94.5184V9.16399Z" fill="black"/>
<path d="M113.618 15.7241H111.182L105.666 7.3891V15.7241H103.23V3.5609H105.666L111.182 11.9133V3.5609H113.618V15.7241Z" fill="black"/>
<path d="M0 5.24123C0 2.34658 2.34658 0 5.24123 0H31.4474C34.342 0 36.6886 2.34658 36.6886 5.24123V30.3991C36.6886 33.2938 34.342 35.6404 31.4474 35.6404H5.24123C2.34658 35.6404 0 33.2938 0 30.3991V5.24123Z" fill="black"/>
<path d="M30.3987 15.7244V8.38672L17.8198 17.8209L6.28906 8.38672V15.7244M30.3987 15.7244V28.8275M30.3987 15.7244L21.4886 23.5863V28.8275M6.28906 28.8275V15.7244M6.28906 15.7244L14.675 23.5863V28.8275" stroke="#FCFBFA" stroke-width="2"/>
</svg>
