<svg width="136" height="24" viewBox="0 0 136 24" fill="none" xmlns="http://www.w3.org/2000/svg">
<path d="M13.7289 3.51063L15.4889 7.03063C15.7289 7.52063 16.3689 7.99062 16.9089 8.08063L20.0989 8.61062C22.1389 8.95062 22.6189 10.4306 21.1489 11.8906L18.6689 14.3706C18.2489 14.7906 18.0189 15.6006 18.1489 16.1806L18.8589 19.2506C19.4189 21.6806 18.1289 22.6206 15.9789 21.3506L12.9889 19.5806C12.4489 19.2606 11.5589 19.2606 11.0089 19.5806L8.01893 21.3506C5.87893 22.6206 4.57893 21.6706 5.13893 19.2506L5.84893 16.1806C5.97893 15.6006 5.74893 14.7906 5.32893 14.3706L2.84893 11.8906C1.38893 10.4306 1.85893 8.95062 3.89893 8.61062L7.08893 8.08063C7.61893 7.99062 8.25893 7.52063 8.49893 7.03063L10.2589 3.51063C11.2189 1.60063 12.7789 1.60063 13.7289 3.51063Z" fill="#A89C93"/>
<path d="M41.7289 3.51063L43.4889 7.03063C43.7289 7.52063 44.3689 7.99062 44.9089 8.08063L48.0989 8.61062C50.1389 8.95062 50.6189 10.4306 49.1489 11.8906L46.6689 14.3706C46.2489 14.7906 46.0189 15.6006 46.1489 16.1806L46.8589 19.2506C47.4189 21.6806 46.1289 22.6206 43.9789 21.3506L40.9889 19.5806C40.4489 19.2606 39.5589 19.2606 39.0089 19.5806L36.0189 21.3506C33.8789 22.6206 32.5789 21.6706 33.1389 19.2506L33.8489 16.1806C33.9789 15.6006 33.7489 14.7906 33.3289 14.3706L30.8489 11.8906C29.3889 10.4306 29.8589 8.95062 31.8989 8.61062L35.0889 8.08063C35.6189 7.99062 36.2589 7.52063 36.4989 7.03063L38.2589 3.51063C39.2189 1.60063 40.7789 1.60063 41.7289 3.51063Z" fill="#A89C93"/>
<path d="M69.7289 3.51063L71.4889 7.03063C71.7289 7.52063 72.3689 7.99062 72.9089 8.08063L76.0989 8.61062C78.1389 8.95062 78.6189 10.4306 77.1489 11.8906L74.6689 14.3706C74.2489 14.7906 74.0189 15.6006 74.1489 16.1806L74.8589 19.2506C75.4189 21.6806 74.1289 22.6206 71.9789 21.3506L68.9889 19.5806C68.4489 19.2606 67.5589 19.2606 67.0089 19.5806L64.0189 21.3506C61.8789 22.6206 60.5789 21.6706 61.1389 19.2506L61.8489 16.1806C61.9789 15.6006 61.7489 14.7906 61.3289 14.3706L58.8489 11.8906C57.3889 10.4306 57.8589 8.95062 59.8989 8.61062L63.0889 8.08063C63.6189 7.99062 64.2589 7.52063 64.4989 7.03063L66.2589 3.51063C67.2189 1.60063 68.7789 1.60063 69.7289 3.51063Z" fill="#A89C93"/>
<path d="M97.7289 3.51063L99.4889 7.03063C99.7289 7.52063 100.369 7.99062 100.909 8.08063L104.099 8.61062C106.139 8.95062 106.619 10.4306 105.149 11.8906L102.669 14.3706C102.249 14.7906 102.019 15.6006 102.149 16.1806L102.859 19.2506C103.419 21.6806 102.129 22.6206 99.9789 21.3506L96.9889 19.5806C96.4489 19.2606 95.5589 19.2606 95.0089 19.5806L92.0189 21.3506C89.8789 22.6206 88.5789 21.6706 89.1389 19.2506L89.8489 16.1806C89.9789 15.6006 89.7489 14.7906 89.3289 14.3706L86.8489 11.8906C85.3889 10.4306 85.8589 8.95062 87.8989 8.61062L91.0889 8.08063C91.6189 7.99062 92.2589 7.52063 92.4989 7.03063L94.2589 3.51063C95.2189 1.60063 96.7789 1.60063 97.7289 3.51063Z" fill="#A89C93"/>
<path d="M125.731 3.51063L127.491 7.03063C127.731 7.52063 128.371 7.99063 128.911 8.08063L132.101 8.61062C134.141 8.95062 134.621 10.4306 133.151 11.8906L130.671 14.3706C130.251 14.7906 130.021 15.6006 130.151 16.1806L130.861 19.2506C131.421 21.6806 130.131 22.6206 127.981 21.3506L124.991 19.5806C124.451 19.2606 123.561 19.2606 123.011 19.5806L120.021 21.3506C117.881 22.6206 116.581 21.6706 117.141 19.2506L117.851 16.1806C117.981 15.6006 117.751 14.7906 117.331 14.3706L114.851 11.8906C113.391 10.4306 113.861 8.95062 115.901 8.61062L119.091 8.08063C119.621 7.99063 120.261 7.52063 120.501 7.03063L122.261 3.51063C123.221 1.60063 124.781 1.60063 125.731 3.51063Z" stroke="#A89C93" stroke-width="1.5" stroke-linecap="round" stroke-linejoin="round"/>
</svg>
