<svg width="116" height="21" viewBox="0 0 116 21" fill="none" xmlns="http://www.w3.org/2000/svg">
<g clip-path="url(#clip0_2542_2594)">
<path d="M9.53834 2.22129C9.70914 1.81065 10.2909 1.81065 10.4617 2.22129L12.5278 7.18877C12.5998 7.36189 12.7626 7.48017 12.9495 7.49516L18.3123 7.92509C18.7556 7.96063 18.9354 8.51389 18.5976 8.80322L14.5117 12.3032C14.3693 12.4252 14.3071 12.6166 14.3506 12.799L15.5989 18.0322C15.7021 18.4648 15.2315 18.8067 14.8519 18.5749L10.2606 15.7705C10.1006 15.6728 9.89938 15.6728 9.73937 15.7705L5.14806 18.5749C4.76851 18.8067 4.29788 18.4648 4.40108 18.0322L5.64939 12.799C5.69289 12.6166 5.6307 12.4252 5.48831 12.3032L1.40241 8.80322C1.06464 8.51389 1.24441 7.96063 1.68773 7.92509L7.05054 7.49516C7.23744 7.48017 7.40024 7.36189 7.47225 7.18877L9.53834 2.22129Z" fill="#F2F4F7"/>
<g clip-path="url(#clip1_2542_2594)">
<path d="M9.53834 2.22129C9.70914 1.81065 10.2909 1.81065 10.4617 2.22129L12.5278 7.18877C12.5998 7.36189 12.7626 7.48017 12.9495 7.49516L18.3123 7.92509C18.7556 7.96063 18.9354 8.51389 18.5976 8.80322L14.5117 12.3032C14.3693 12.4252 14.3071 12.6166 14.3506 12.799L15.5989 18.0322C15.7021 18.4648 15.2315 18.8067 14.8519 18.5749L10.2606 15.7705C10.1006 15.6728 9.89938 15.6728 9.73937 15.7705L5.14806 18.5749C4.76851 18.8067 4.29788 18.4648 4.40108 18.0322L5.64939 12.799C5.69289 12.6166 5.6307 12.4252 5.48831 12.3032L1.40241 8.80322C1.06464 8.51389 1.24441 7.96063 1.68773 7.92509L7.05054 7.49516C7.23744 7.48017 7.40024 7.36189 7.47225 7.18877L9.53834 2.22129Z" fill="#FEC84B"/>
</g>
</g>
<g clip-path="url(#clip2_2542_2594)">
<path d="M33.5383 2.22129C33.7091 1.81065 34.2909 1.81065 34.4617 2.22129L36.5278 7.18877C36.5998 7.36189 36.7626 7.48017 36.9495 7.49516L42.3123 7.92509C42.7556 7.96063 42.9354 8.51389 42.5976 8.80322L38.5117 12.3032C38.3693 12.4252 38.3071 12.6166 38.3506 12.799L39.5989 18.0322C39.7021 18.4648 39.2315 18.8067 38.8519 18.5749L34.2606 15.7705C34.1006 15.6728 33.8994 15.6728 33.7394 15.7705L29.1481 18.5749C28.7685 18.8067 28.2979 18.4648 28.4011 18.0322L29.6494 12.799C29.6929 12.6166 29.6307 12.4252 29.4883 12.3032L25.4024 8.80322C25.0646 8.51389 25.2444 7.96063 25.6877 7.92509L31.0505 7.49516C31.2374 7.48017 31.4002 7.36189 31.4722 7.18877L33.5383 2.22129Z" fill="#F2F4F7"/>
<g clip-path="url(#clip3_2542_2594)">
<path d="M33.5383 2.22129C33.7091 1.81065 34.2909 1.81065 34.4617 2.22129L36.5278 7.18877C36.5998 7.36189 36.7626 7.48017 36.9495 7.49516L42.3123 7.92509C42.7556 7.96063 42.9354 8.51389 42.5976 8.80322L38.5117 12.3032C38.3693 12.4252 38.3071 12.6166 38.3506 12.799L39.5989 18.0322C39.7021 18.4648 39.2315 18.8067 38.8519 18.5749L34.2606 15.7705C34.1006 15.6728 33.8994 15.6728 33.7394 15.7705L29.1481 18.5749C28.7685 18.8067 28.2979 18.4648 28.4011 18.0322L29.6494 12.799C29.6929 12.6166 29.6307 12.4252 29.4883 12.3032L25.4024 8.80322C25.0646 8.51389 25.2444 7.96063 25.6877 7.92509L31.0505 7.49516C31.2374 7.48017 31.4002 7.36189 31.4722 7.18877L33.5383 2.22129Z" fill="#FEC84B"/>
</g>
</g>
<g clip-path="url(#clip4_2542_2594)">
<path d="M57.5383 2.22129C57.7091 1.81065 58.2909 1.81065 58.4617 2.22129L60.5278 7.18877C60.5998 7.36189 60.7626 7.48017 60.9495 7.49516L66.3123 7.92509C66.7556 7.96063 66.9354 8.51389 66.5976 8.80322L62.5117 12.3032C62.3693 12.4252 62.3071 12.6166 62.3506 12.799L63.5989 18.0322C63.7021 18.4648 63.2315 18.8067 62.8519 18.5749L58.2606 15.7705C58.1006 15.6728 57.8994 15.6728 57.7394 15.7705L53.1481 18.5749C52.7685 18.8067 52.2979 18.4648 52.4011 18.0322L53.6494 12.799C53.6929 12.6166 53.6307 12.4252 53.4883 12.3032L49.4024 8.80322C49.0646 8.51389 49.2444 7.96063 49.6877 7.92509L55.0505 7.49516C55.2374 7.48017 55.4002 7.36189 55.4722 7.18877L57.5383 2.22129Z" fill="#F2F4F7"/>
<g clip-path="url(#clip5_2542_2594)">
<path d="M57.5383 2.22129C57.7091 1.81065 58.2909 1.81065 58.4617 2.22129L60.5278 7.18877C60.5998 7.36189 60.7626 7.48017 60.9495 7.49516L66.3123 7.92509C66.7556 7.96063 66.9354 8.51389 66.5976 8.80322L62.5117 12.3032C62.3693 12.4252 62.3071 12.6166 62.3506 12.799L63.5989 18.0322C63.7021 18.4648 63.2315 18.8067 62.8519 18.5749L58.2606 15.7705C58.1006 15.6728 57.8994 15.6728 57.7394 15.7705L53.1481 18.5749C52.7685 18.8067 52.2979 18.4648 52.4011 18.0322L53.6494 12.799C53.6929 12.6166 53.6307 12.4252 53.4883 12.3032L49.4024 8.80322C49.0646 8.51389 49.2444 7.96063 49.6877 7.92509L55.0505 7.49516C55.2374 7.48017 55.4002 7.36189 55.4722 7.18877L57.5383 2.22129Z" fill="#FEC84B"/>
</g>
</g>
<g clip-path="url(#clip6_2542_2594)">
<path d="M81.5383 2.22129C81.7091 1.81065 82.2909 1.81065 82.4617 2.22129L84.5278 7.18877C84.5998 7.36189 84.7626 7.48017 84.9495 7.49516L90.3123 7.92509C90.7556 7.96063 90.9354 8.51389 90.5976 8.80322L86.5117 12.3032C86.3693 12.4252 86.3071 12.6166 86.3506 12.799L87.5989 18.0322C87.7021 18.4648 87.2315 18.8067 86.8519 18.5749L82.2606 15.7705C82.1006 15.6728 81.8994 15.6728 81.7394 15.7705L77.1481 18.5749C76.7685 18.8067 76.2979 18.4648 76.4011 18.0322L77.6494 12.799C77.6929 12.6166 77.6307 12.4252 77.4883 12.3032L73.4024 8.80322C73.0646 8.51389 73.2444 7.96063 73.6877 7.92509L79.0505 7.49516C79.2374 7.48017 79.4002 7.36189 79.4722 7.18877L81.5383 2.22129Z" fill="#F2F4F7"/>
<g clip-path="url(#clip7_2542_2594)">
<path d="M81.5383 2.22129C81.7091 1.81065 82.2909 1.81065 82.4617 2.22129L84.5278 7.18877C84.5998 7.36189 84.7626 7.48017 84.9495 7.49516L90.3123 7.92509C90.7556 7.96063 90.9354 8.51389 90.5976 8.80322L86.5117 12.3032C86.3693 12.4252 86.3071 12.6166 86.3506 12.799L87.5989 18.0322C87.7021 18.4648 87.2315 18.8067 86.8519 18.5749L82.2606 15.7705C82.1006 15.6728 81.8994 15.6728 81.7394 15.7705L77.1481 18.5749C76.7685 18.8067 76.2979 18.4648 76.4011 18.0322L77.6494 12.799C77.6929 12.6166 77.6307 12.4252 77.4883 12.3032L73.4024 8.80322C73.0646 8.51389 73.2444 7.96063 73.6877 7.92509L79.0505 7.49516C79.2374 7.48017 79.4002 7.36189 79.4722 7.18877L81.5383 2.22129Z" fill="#FEC84B"/>
</g>
</g>
<g clip-path="url(#clip8_2542_2594)">
<path d="M105.538 2.22129C105.709 1.81065 106.291 1.81065 106.462 2.22129L108.528 7.18877C108.6 7.36189 108.763 7.48017 108.949 7.49516L114.312 7.92509C114.756 7.96063 114.935 8.51389 114.598 8.80322L110.512 12.3032C110.369 12.4252 110.307 12.6166 110.351 12.799L111.599 18.0322C111.702 18.4648 111.231 18.8067 110.852 18.5749L106.261 15.7705C106.101 15.6728 105.899 15.6728 105.739 15.7705L101.148 18.5749C100.769 18.8067 100.298 18.4648 100.401 18.0322L101.649 12.799C101.693 12.6166 101.631 12.4252 101.488 12.3032L97.4024 8.80322C97.0646 8.51389 97.2444 7.96063 97.6877 7.92509L103.051 7.49516C103.237 7.48017 103.4 7.36189 103.472 7.18877L105.538 2.22129Z" fill="#F2F4F7"/>
<g clip-path="url(#clip9_2542_2594)">
<path d="M105.538 2.22129C105.709 1.81065 106.291 1.81065 106.462 2.22129L108.528 7.18877C108.6 7.36189 108.763 7.48017 108.949 7.49516L114.312 7.92509C114.756 7.96063 114.935 8.51389 114.598 8.80322L110.512 12.3032C110.369 12.4252 110.307 12.6166 110.351 12.799L111.599 18.0322C111.702 18.4648 111.231 18.8067 110.852 18.5749L106.261 15.7705C106.101 15.6728 105.899 15.6728 105.739 15.7705L101.148 18.5749C100.769 18.8067 100.298 18.4648 100.401 18.0322L101.649 12.799C101.693 12.6166 101.631 12.4252 101.488 12.3032L97.4024 8.80322C97.0646 8.51389 97.2444 7.96063 97.6877 7.92509L103.051 7.49516C103.237 7.48017 103.4 7.36189 103.472 7.18877L105.538 2.22129Z" fill="#FEC84B"/>
</g>
</g>
<defs>
<clipPath id="clip0_2542_2594">
<rect width="20" height="20" fill="white" transform="translate(0 0.611328)"/>
</clipPath>
<clipPath id="clip1_2542_2594">
<rect width="20" height="20" fill="white" transform="translate(0 0.611328)"/>
</clipPath>
<clipPath id="clip2_2542_2594">
<rect width="20" height="20" fill="white" transform="translate(24 0.611328)"/>
</clipPath>
<clipPath id="clip3_2542_2594">
<rect width="20" height="20" fill="white" transform="translate(24 0.611328)"/>
</clipPath>
<clipPath id="clip4_2542_2594">
<rect width="20" height="20" fill="white" transform="translate(48 0.611328)"/>
</clipPath>
<clipPath id="clip5_2542_2594">
<rect width="20" height="20" fill="white" transform="translate(48 0.611328)"/>
</clipPath>
<clipPath id="clip6_2542_2594">
<rect width="20" height="20" fill="white" transform="translate(72 0.611328)"/>
</clipPath>
<clipPath id="clip7_2542_2594">
<rect width="20" height="20" fill="white" transform="translate(72 0.611328)"/>
</clipPath>
<clipPath id="clip8_2542_2594">
<rect width="20" height="20" fill="white" transform="translate(96 0.611328)"/>
</clipPath>
<clipPath id="clip9_2542_2594">
<rect width="20" height="20" fill="white" transform="translate(96 0.611328)"/>
</clipPath>
</defs>
</svg>
